<svg width="101" height="100" viewBox="0 0 101 100" fill="none" xmlns="http://www.w3.org/2000/svg">
<path d="M35.8999 23.8868C42.1846 20.5497 49.477 19.6398 56.3891 21.3301C63.3012 23.0205 69.3505 27.1933 73.3859 33.0542C77.4212 38.9151 79.1609 46.0552 78.2737 53.1155C77.3866 60.1757 73.9346 66.6634 68.5748 71.3439C63.2149 76.0243 56.3213 78.5707 49.2058 78.4985C42.0904 78.4263 35.2498 75.7406 29.986 70.9524C24.7222 66.1642 21.4025 59.6078 20.6588 52.531C19.9151 45.4541 21.7993 38.3509 25.9527 32.573" stroke="#B00000" stroke-width="3" stroke-linecap="round" stroke-linejoin="round"/>
<path d="M34.4776 24.1659L36.4221 19.9624" stroke="#B00000" stroke-width="2" stroke-linecap="round" stroke-linejoin="round"/>
<path d="M34.4761 23.874L38.5886 25.5302" stroke="#B00000" stroke-width="2" stroke-linecap="round" stroke-linejoin="round"/>
<path d="M49.4999 72.1268C61.9964 72.1268 72.1268 61.9964 72.1268 49.4999C72.1268 37.0035 61.9964 26.873 49.4999 26.873C37.0034 26.873 26.873 37.0035 26.873 49.4999C26.873 61.9964 37.0034 72.1268 49.4999 72.1268Z" stroke="#B00000" stroke-width="3"/>
<path d="M49.5 30.4521H49.5C48.7987 30.4521 48.2302 31.0207 48.2302 31.722V33.4151C48.2302 34.1164 48.7987 34.6849 49.5 34.6849H49.5C50.2013 34.6849 50.7699 34.1164 50.7699 33.4151V31.722C50.7699 31.0207 50.2013 30.4521 49.5 30.4521Z" fill="#B00000"/>
<path d="M49.5006 64.3145H49.5005C48.7992 64.3145 48.2307 64.883 48.2307 65.5843V67.2774C48.2307 67.9787 48.7992 68.5472 49.5005 68.5472H49.5006C50.2019 68.5472 50.7704 67.9787 50.7704 67.2774V65.5843C50.7704 64.883 50.2019 64.3145 49.5006 64.3145Z" fill="#B00000"/>
<path d="M68.5474 49.4998V49.4998C68.5474 48.7985 67.9789 48.23 67.2776 48.23H65.5844C64.8831 48.23 64.3146 48.7985 64.3146 49.4998V49.4998C64.3146 50.2011 64.8831 50.7696 65.5844 50.7696H67.2776C67.9789 50.7696 68.5474 50.2011 68.5474 49.4998Z" fill="#B00000"/>
<path d="M34.6853 49.4998V49.4998C34.6853 48.7985 34.1168 48.23 33.4155 48.23H31.7224C31.021 48.23 30.4525 48.7985 30.4525 49.4998V49.4998C30.4525 50.2011 31.021 50.7696 31.7224 50.7696H33.4155C34.1168 50.7696 34.6853 50.2011 34.6853 49.4998Z" fill="#B00000"/>
<path d="M42.9009 49.6328L47.5814 54.1822L57.2998 44.7361" stroke="#B00000" stroke-width="3" stroke-linecap="round" stroke-linejoin="round"/>
</svg>
