<svg style="display: none;" aria-hidden="true" xmlns="http://www.w3.org/2000/svg" xmlns:xlink="http://www.w3.org/1999/xlink"><symbol viewBox="0 0 101 100" fill="none" id="svg-certificate-icon" xmlns="http://www.w3.org/2000/svg">
<path d="M75.4928 62.5393V64.0078C75.4928 64.9947 75.1008 65.9411 74.403 66.6389C73.7052 67.3367 72.7587 67.7288 71.7719 67.7288H27.1206C26.1337 67.7288 25.1873 67.3367 24.4895 66.6389C23.7917 65.9411 23.3997 64.9947 23.3997 64.0078V36.7209C23.3997 35.7341 23.7917 34.7876 24.4895 34.0898C25.1873 33.392 26.1337 33 27.1206 33H71.7719C72.7587 33 73.7052 33.392 74.403 34.0898C75.1008 34.7876 75.4928 35.7341 75.4928 36.7209V42.7489" stroke="#B00000" stroke-width="3" stroke-linecap="round" stroke-linejoin="round"/>
<path d="M69.4424 43.2324V47.3862" stroke="#B00000" stroke-width="3" stroke-miterlimit="10" stroke-linecap="round" stroke-linejoin="round"/>
<path d="M69.4424 57.0786V61.2324" stroke="#B00000" stroke-width="3" stroke-miterlimit="10" stroke-linecap="round" stroke-linejoin="round"/>
<path d="M76.8606 47.8906L73.4138 49.8386" stroke="#B00000" stroke-width="3" stroke-miterlimit="10" stroke-linecap="round" stroke-linejoin="round"/>
<path d="M65.4709 54.624L62.0242 56.572" stroke="#B00000" stroke-width="3" stroke-miterlimit="10" stroke-linecap="round" stroke-linejoin="round"/>
<path d="M62.0242 47.892L65.4707 49.8405" stroke="#B00000" stroke-width="3" stroke-miterlimit="10" stroke-linecap="round" stroke-linejoin="round"/>
<path d="M73.4146 54.6263L76.861 56.5748" stroke="#B00000" stroke-width="3" stroke-miterlimit="10" stroke-linecap="round" stroke-linejoin="round"/>
<path d="M30.7975 57.7303L38.6032 49.9247L44.3359 55.6574L56.3113 43.682" stroke="#B00000" stroke-width="3" stroke-miterlimit="10" stroke-linecap="round" stroke-linejoin="round"/>
</symbol><symbol viewBox="0 0 101 100" fill="none" id="svg-clock-icon" xmlns="http://www.w3.org/2000/svg">
<path d="M35.8999 23.8868C42.1846 20.5497 49.477 19.6398 56.3891 21.3301C63.3012 23.0205 69.3505 27.1933 73.3859 33.0542C77.4212 38.9151 79.1609 46.0552 78.2737 53.1155C77.3866 60.1757 73.9346 66.6634 68.5748 71.3439C63.2149 76.0243 56.3213 78.5707 49.2058 78.4985C42.0904 78.4263 35.2498 75.7406 29.986 70.9524C24.7222 66.1642 21.4025 59.6078 20.6588 52.531C19.9151 45.4541 21.7993 38.3509 25.9527 32.573" stroke="#B00000" stroke-width="3" stroke-linecap="round" stroke-linejoin="round"/>
<path d="M34.4776 24.1659L36.4221 19.9624" stroke="#B00000" stroke-width="2" stroke-linecap="round" stroke-linejoin="round"/>
<path d="M34.4761 23.874L38.5886 25.5302" stroke="#B00000" stroke-width="2" stroke-linecap="round" stroke-linejoin="round"/>
<path d="M49.4999 72.1268C61.9964 72.1268 72.1268 61.9964 72.1268 49.4999C72.1268 37.0035 61.9964 26.873 49.4999 26.873C37.0034 26.873 26.873 37.0035 26.873 49.4999C26.873 61.9964 37.0034 72.1268 49.4999 72.1268Z" stroke="#B00000" stroke-width="3"/>
<path d="M49.5 30.4521H49.5C48.7987 30.4521 48.2302 31.0207 48.2302 31.722V33.4151C48.2302 34.1164 48.7987 34.6849 49.5 34.6849H49.5C50.2013 34.6849 50.7699 34.1164 50.7699 33.4151V31.722C50.7699 31.0207 50.2013 30.4521 49.5 30.4521Z" fill="#B00000"/>
<path d="M49.5006 64.3145H49.5005C48.7992 64.3145 48.2307 64.883 48.2307 65.5843V67.2774C48.2307 67.9787 48.7992 68.5472 49.5005 68.5472H49.5006C50.2019 68.5472 50.7704 67.9787 50.7704 67.2774V65.5843C50.7704 64.883 50.2019 64.3145 49.5006 64.3145Z" fill="#B00000"/>
<path d="M68.5474 49.4998V49.4998C68.5474 48.7985 67.9789 48.23 67.2776 48.23H65.5844C64.8831 48.23 64.3146 48.7985 64.3146 49.4998V49.4998C64.3146 50.2011 64.8831 50.7696 65.5844 50.7696H67.2776C67.9789 50.7696 68.5474 50.2011 68.5474 49.4998Z" fill="#B00000"/>
<path d="M34.6853 49.4998V49.4998C34.6853 48.7985 34.1168 48.23 33.4155 48.23H31.7224C31.021 48.23 30.4525 48.7985 30.4525 49.4998V49.4998C30.4525 50.2011 31.021 50.7696 31.7224 50.7696H33.4155C34.1168 50.7696 34.6853 50.2011 34.6853 49.4998Z" fill="#B00000"/>
<path d="M42.9009 49.6328L47.5814 54.1822L57.2998 44.7361" stroke="#B00000" stroke-width="3" stroke-linecap="round" stroke-linejoin="round"/>
</symbol><symbol viewBox="0 0 552 400" fill="none" id="svg-hero-img-after" xmlns="http://www.w3.org/2000/svg">
<path d="M0 280H40L0 240V280Z" fill="#B00000"/>
<path d="M552 40H512L552 0V40Z" fill="#B00000"/>
<path d="M552 400H480L552 328V400Z" fill="#B00000"/>
</symbol><symbol viewBox="0 0 101 100" fill="none" id="svg-hosting-icon" xmlns="http://www.w3.org/2000/svg">
<path d="M43.642 75.601C43.8617 75.6965 44.0986 75.7459 44.3382 75.7462C45.0499 75.7445 45.6907 75.3139 45.9606 74.6554L47.3846 71.2142C49.117 71.4509 50.8737 71.4484 52.6054 71.2068L54.0354 74.6512C54.2113 75.0842 54.5531 75.4289 54.9847 75.6084C55.4163 75.7878 55.9017 75.7872 56.3328 75.6066L62.2851 73.1387C62.7246 72.9582 63.0731 72.6085 63.2521 72.1683C63.4275 71.743 63.4231 71.2648 63.24 70.8427L61.8161 67.3932C63.2096 66.3378 64.4522 65.0967 65.5091 63.7044L68.9383 65.1237C69.3705 65.3105 69.8597 65.3156 70.2957 65.1378C70.7316 64.96 71.0778 64.6143 71.2561 64.1785L73.7274 58.2187C73.9053 57.789 73.9065 57.3065 73.7306 56.876C73.5551 56.4408 73.2109 56.0951 72.7765 55.9177L70.3352 54.9013L30.5577 54.5386L27.1917 55.926C26.3089 56.3052 25.8974 57.3257 26.2703 58.2112L28.7315 64.1821C28.9107 64.6104 29.2523 64.9502 29.6814 65.1273C30.1108 65.3085 30.5951 65.3093 31.0251 65.1296L34.4774 63.7038C35.5362 65.0971 36.779 66.3403 38.1718 67.3996L36.7564 70.8212C36.5664 71.2487 36.5587 71.735 36.7351 72.1682C36.9137 72.6072 37.2609 72.9563 37.6989 73.1371L43.642 75.601Z" stroke="#B00000" stroke-width="3"/>
<path d="M69.4716 55.2471H69.4708H33.8489C27.8572 55.2471 23 50.3898 23 44.3981C23 38.4064 27.8572 33.5492 33.8489 33.5492C33.9245 33.5492 33.992 33.5497 34.055 33.5511L35.0616 33.574L35.4641 32.6512C37.4908 28.0042 42.0787 25 47.1484 25C52.2182 25 56.806 28.0042 58.8328 32.6512L59.2159 33.5295L60.1739 33.5511C63.8845 33.6348 67.2019 35.885 68.6517 39.3017L69.014 40.1557L69.9399 40.213C73.9981 40.4638 77.1229 43.8932 76.9963 47.9571C76.8697 52.021 73.5375 55.2493 69.4716 55.2471Z" stroke="#B00000" stroke-width="3"/>
<path d="M49.9961 65.5468H49.9981C55.998 65.523 61.37 61.824 63.5326 56.2274C63.6898 55.8261 63.6197 55.3713 63.3489 55.0359C63.078 54.7004 62.6479 54.5361 62.2223 54.6055C61.797 54.6748 61.4416 54.9668 61.2911 55.3705C59.5028 60.0534 55.01 63.1471 49.9971 63.1471C44.9842 63.1471 40.4914 60.0534 38.7031 55.3704C38.5526 54.9668 38.1972 54.6748 37.7719 54.6055C37.3463 54.5361 36.9162 54.7004 36.6453 55.0359C36.3745 55.3713 36.3044 55.8261 36.4616 56.2273C38.6242 61.824 43.9962 65.523 49.9961 65.5468Z" fill="#B00000" stroke="#B00000" stroke-width="0.5"/>
</symbol><symbol viewBox="0 0 143 120" fill="none" id="svg-lapky" xmlns="http://www.w3.org/2000/svg">
<path fill-rule="evenodd" clip-rule="evenodd" d="M142.373 18.7419C121.049 29.1541 110.387 41.3882 110.387 55.4447C119.476 56.4859 126.992 60.1735 132.934 66.5076C138.877 72.8417 141.849 80.1735 141.849 88.5033C141.849 97.3536 138.965 104.816 133.197 110.889C127.428 116.963 120.175 120 111.435 120C101.647 120 93.1701 116.052 86.0037 108.156C78.8374 100.26 75.2542 90.6725 75.2542 79.3926C75.2542 45.553 94.306 19.089 132.41 0L142.373 18.7419ZM67.1186 18.7419C45.6196 29.1541 34.8702 41.3882 34.8702 55.4447C44.134 56.4859 51.7373 60.1735 57.6801 66.5076C63.6229 72.8417 66.5943 80.1735 66.5943 88.5033C66.5943 97.3536 63.6666 104.816 57.8112 110.889C51.9557 116.963 44.6584 120 35.919 120C26.1308 120 17.6973 116.052 10.6184 108.156C3.53942 100.26 0 90.6725 0 79.3926C0 45.553 18.9643 19.089 56.8935 0L67.1186 18.7419Z" fill="#B00000"/>
</symbol><symbol viewBox="0 0 20 20" fill="none" id="svg-phone-icon" xmlns="http://www.w3.org/2000/svg">
<g clip-path="url(#fclip0_2_356)">
<path d="M18.3333 14.0999V16.5999C18.3343 16.832 18.2867 17.0617 18.1937 17.2744C18.1008 17.487 17.9644 17.6779 17.7934 17.8348C17.6224 17.9917 17.4205 18.1112 17.2006 18.1855C16.9808 18.2599 16.7478 18.2875 16.5167 18.2666C13.9523 17.988 11.4892 17.1117 9.32498 15.7083C7.31151 14.4288 5.60443 12.7217 4.32499 10.7083C2.91663 8.53426 2.04019 6.05908 1.76665 3.48325C1.74583 3.25281 1.77321 3.02055 1.84707 2.80127C1.92092 2.58199 2.03963 2.38049 2.19562 2.2096C2.35162 2.03871 2.54149 1.90218 2.75314 1.80869C2.9648 1.7152 3.1936 1.6668 3.42499 1.66658H5.92499C6.32941 1.6626 6.72148 1.80582 7.02812 2.06953C7.33476 2.33324 7.53505 2.69946 7.59165 3.09992C7.69717 3.89997 7.89286 4.68552 8.17499 5.44158C8.2871 5.73985 8.31137 6.06401 8.24491 6.37565C8.17844 6.68729 8.02404 6.97334 7.79998 7.19992L6.74165 8.25825C7.92795 10.3445 9.65536 12.072 11.7417 13.2583L12.8 12.1999C13.0266 11.9759 13.3126 11.8215 13.6243 11.755C13.9359 11.6885 14.26 11.7128 14.5583 11.8249C15.3144 12.107 16.0999 12.3027 16.9 12.4083C17.3048 12.4654 17.6745 12.6693 17.9388 12.9812C18.203 13.2931 18.3435 13.6912 18.3333 14.0999Z" stroke="#B00000" stroke-width="2" stroke-linecap="round" stroke-linejoin="round"/>
</g>
<defs>
<clipPath id="fclip0_2_356">
<rect width="20" height="20" fill="white"/>
</clipPath>
</defs>
</symbol><symbol viewBox="0 0 100 100" fill="none" id="svg-support-icon" xmlns="http://www.w3.org/2000/svg">
<path d="M26.4905 45.8496H23.7123C23.2366 45.8496 22.7804 46.0533 22.444 46.416C22.1077 46.7787 21.9187 47.2706 21.9187 47.7834V55.54C21.9187 56.0528 22.1077 56.5447 22.444 56.9074C22.7804 57.27 23.2366 57.4738 23.7123 57.4738H26.4905" stroke="#B00000" stroke-width="3.11405" stroke-linecap="round"/>
<path d="M73.9596 45.8496H75.9173C76.393 45.8496 76.8492 46.0533 77.1856 46.416C77.5219 46.7787 77.7109 47.2706 77.7109 47.7834V55.54C77.7109 56.0528 77.5219 56.5447 77.1856 56.9074C76.8492 57.27 76.393 57.4738 75.9173 57.4738H73.1392" stroke="#B00000" stroke-width="3.11405" stroke-linecap="round"/>
<path d="M60.2121 70.5232H63.8576C67.9735 67.5176 71.0296 63.2702 72.582 58.3979C74.1343 53.5255 74.102 48.2822 72.4897 43.4296C70.8775 38.577 67.7692 34.368 63.6166 31.4141C59.464 28.4601 54.4833 26.9151 49.3982 27.0036C44.3132 27.092 39.3885 28.8093 35.3399 31.9059C31.2913 35.0025 28.3295 39.3171 26.885 44.2229C25.4404 49.1286 25.5883 54.3699 27.3071 59.1853C29.026 64.0008 32.2262 68.1394 36.4429 71" stroke="#B00000" stroke-width="3" stroke-linecap="round"/>
<path d="M57.3704 72.8249H47.7347C47.2303 72.8227 46.7472 72.6166 46.3905 72.2516C46.0339 71.8866 45.8325 71.3922 45.8303 70.876V70.6218C45.8328 70.1057 46.0342 69.6114 46.3908 69.2465C46.7474 68.8815 47.2304 68.6754 47.7347 68.6729H57.3704C57.8748 68.6751 58.3579 68.8811 58.7146 69.2462C59.0713 69.6112 59.2726 70.1056 59.2748 70.6218V70.876C59.2728 71.3923 59.0716 71.8869 58.7149 72.2519C58.3582 72.617 57.8749 72.823 57.3704 72.8249Z" stroke="#B00000" stroke-width="3" stroke-linecap="round"/>
<path d="M35.0567 55.8622H41.2782V54.3537H37.6135V54.294L38.8876 53.0454C40.6817 51.4091 41.1632 50.5909 41.1632 49.598C41.1632 48.0852 39.9274 47.0156 38.0567 47.0156C36.2243 47.0156 34.9672 48.1108 34.9714 49.8239H36.7228C36.7186 48.9886 37.247 48.4773 38.0439 48.4773C38.8109 48.4773 39.3819 48.9545 39.3819 49.7216C39.3819 50.4162 38.9558 50.8935 38.1632 51.6562L35.0567 54.5327V55.8622ZM42.2956 54.3281H46.4846V55.8622H48.2488V54.3281H49.3312V52.8494H48.2488V47.1349H45.9391L42.2956 52.875V54.3281ZM46.5187 52.8494H44.1536V52.7812L46.4505 49.1463H46.5187V52.8494ZM55.9171 54.652L57.0378 53.5312L55.052 51.5497L57.0378 49.5682L55.9171 48.4389L53.9313 50.4247L51.9412 48.4389L50.8248 49.5682L52.8063 51.5497L50.8248 53.5312L51.9412 54.652L53.9313 52.6662L55.9171 54.652ZM59.062 55.8622H60.9668L64.589 48.6648V47.1349H58.4654V48.6435H62.6799V48.7031L59.062 55.8622Z" fill="#B00000"/>
</symbol>

<symbol id="whatsapp-svg"  viewBox="0 0 25 25" fill="none" xmlns="http://www.w3.org/2000/svg">
<path d="M20.1611 4.74121C18.1152 2.69043 15.3906 1.5625 12.4951 1.5625C6.51855 1.5625 1.65527 6.42578 1.65527 12.4023C1.65527 14.3115 2.15332 16.1768 3.10059 17.8223L1.5625 23.4375L7.30957 21.9287C8.8916 22.793 10.6738 23.2471 12.4902 23.2471H12.4951C18.4668 23.2471 23.4375 18.3838 23.4375 12.4072C23.4375 9.51172 22.207 6.79199 20.1611 4.74121ZM12.4951 21.4209C10.874 21.4209 9.28711 20.9863 7.90527 20.166L7.57812 19.9707L4.16992 20.8643L5.07812 17.5391L4.86328 17.1973C3.95996 15.7617 3.48633 14.1064 3.48633 12.4023C3.48633 7.43652 7.5293 3.39355 12.5 3.39355C14.9072 3.39355 17.168 4.33105 18.8672 6.03516C20.5664 7.73926 21.6113 10 21.6064 12.4072C21.6064 17.3779 17.4609 21.4209 12.4951 21.4209ZM17.4365 14.6729C17.168 14.5361 15.835 13.8818 15.5859 13.7939C15.3369 13.7012 15.1563 13.6572 14.9756 13.9307C14.7949 14.2041 14.2773 14.8096 14.1162 14.9951C13.96 15.1758 13.7988 15.2002 13.5303 15.0635C11.9385 14.2676 10.8936 13.6426 9.84375 11.8408C9.56543 11.3623 10.1221 11.3965 10.6396 10.3613C10.7275 10.1807 10.6836 10.0244 10.6152 9.8877C10.5469 9.75098 10.0049 8.41797 9.78027 7.87598C9.56055 7.34863 9.33594 7.42188 9.16992 7.41211C9.01367 7.40234 8.83301 7.40234 8.65234 7.40234C8.47168 7.40234 8.17871 7.4707 7.92969 7.73926C7.68066 8.0127 6.98242 8.66699 6.98242 10C6.98242 11.333 7.9541 12.6221 8.08594 12.8027C8.22266 12.9834 9.99512 15.7178 12.7148 16.8945C14.4336 17.6367 15.1074 17.7002 15.9668 17.5732C16.4893 17.4951 17.5684 16.9189 17.793 16.2842C18.0176 15.6494 18.0176 15.1074 17.9492 14.9951C17.8857 14.873 17.7051 14.8047 17.4365 14.6729Z" fill="white"/>
</symbol>

<symbol id="heart-svg" viewBox="0 0 24 24" fill="none" xmlns="http://www.w3.org/2000/svg">
<path d="M20.84 4.61012C20.3292 4.09912 19.7228 3.69376 19.0554 3.4172C18.3879 3.14064 17.6725 2.99829 16.95 2.99829C16.2275 2.99829 15.5121 3.14064 14.8446 3.4172C14.1772 3.69376 13.5708 4.09912 13.06 4.61012L12 5.67012L10.94 4.61012C9.9083 3.57842 8.50903 2.99883 7.05 2.99883C5.59096 2.99883 4.19169 3.57842 3.16 4.61012C2.1283 5.64181 1.54871 7.04108 1.54871 8.50012C1.54871 9.95915 2.1283 11.3584 3.16 12.3901L4.22 13.4501L12 21.2301L19.78 13.4501L20.84 12.3901C21.351 11.8794 21.7563 11.2729 22.0329 10.6055C22.3095 9.93801 22.4518 9.2226 22.4518 8.50012C22.4518 7.77763 22.3095 7.06222 22.0329 6.39476C21.7563 5.7273 21.351 5.12087 20.84 4.61012Z" fill="white"/>
</symbol>


</svg>